<svg width="169" height="47" viewBox="0 0 169 47" fill="none" xmlns="http://www.w3.org/2000/svg">
<path d="M64.5176 6.37167C66.3742 6.37167 67.774 6.86766 68.7217 7.8541C69.6694 8.84058 70.2388 10.3655 70.4326 12.4332L67.6494 13.1871C67.5546 11.8174 67.2876 10.7575 66.8525 10.0123C66.4174 9.27136 65.6419 8.89609 64.5176 8.89609C63.6863 8.8961 63.0492 9.11637 62.6055 9.55136C62.1618 9.98645 61.9375 10.6285 61.9375 11.4771C61.9375 12.1747 62.0537 12.7603 62.2861 13.234C62.5188 13.7078 62.9156 14.1861 63.4756 14.6685L67.4473 18.149C68.4725 19.058 69.291 20.041 69.8984 21.1051C70.5056 22.169 70.8115 23.3796 70.8115 24.732C70.8115 26.4507 70.2899 27.8162 69.2432 28.8199C68.2007 29.8235 66.8482 30.3277 65.1855 30.3277C63.2126 30.3277 61.7087 29.7163 60.6748 28.5016C59.641 27.2825 59.0685 25.6108 58.9521 23.483L61.8516 22.6988C61.9464 24.2064 62.2433 25.4256 62.7344 26.356C63.2298 27.2821 64.0441 27.7477 65.1855 27.7477C66.0383 27.7476 66.6802 27.5104 67.1152 27.0367C67.5503 26.5629 67.7656 25.8816 67.7656 24.9898C67.7656 24.0251 67.5631 23.224 67.1582 22.5865C66.7533 21.9447 66.103 21.2426 65.2158 20.4674L61.2695 16.9859C60.477 16.2924 59.9044 15.543 59.5469 14.7418C59.1893 13.9362 59.0078 12.9586 59.0078 11.7955C59.0078 10.0768 59.5033 8.74126 60.4854 7.79355C61.4718 6.84585 62.816 6.37169 64.5176 6.37167ZM57.2637 30.0738H54.1621L53.0898 24.1549H48.3037L47.1758 30.0738H44.0996L49.0879 6.58261H52.25L57.2637 30.0738ZM9.07617 8.92538H3.27832V16.7574H7.77148V19.0748H3.27832V30.068H0V6.57773H9.07617V8.92538ZM20.4375 9.0162H14.6094V16.7877H19.335V19.1051H14.6094V27.7164H20.4941V30.068H11.3311V6.57773H20.4375V9.0162ZM27.8691 6.57968C30.2468 6.57974 31.9912 7.06672 33.1025 8.04453C34.2139 9.01808 34.7695 10.6075 34.7695 12.8131C34.7695 15.8283 33.805 17.6549 31.8711 18.2926L35.2051 30.066H32.043L28.9717 19.0465H26.417V30.066H23.1436V6.57968H27.8691ZM41.5742 30.065H38.3555V6.5748H41.5742V30.065ZM48.7393 21.8072H52.6553L50.6816 11.2223L48.7393 21.8072ZM26.417 16.6988H27.666C29.079 16.6988 30.0875 16.419 30.6992 15.859C31.3066 15.299 31.6074 14.282 31.6074 12.8131C31.6074 11.8482 31.5044 11.0857 31.2891 10.5387C31.078 9.98727 30.7029 9.57838 30.1602 9.31992C29.6175 9.05721 28.8554 8.92737 27.8691 8.92734H26.417V16.6988Z" fill="white"/>
<path fill-rule="evenodd" clip-rule="evenodd" d="M90.753 10.4292V8.33127H82.9042V28.5736H90.8047V26.5489H85.7302V19.1266H89.8053V17.1278H85.7302V10.4292H90.753ZM95.0005 8.33127H93.0792V28.5736H95.4787V14.7542L101.299 28.5736H103.099V8.33127H100.747V21.7759L95.0005 8.33127ZM110.302 0V46.2872L93.0534 38.0249L75.7016 46.2872V0H110.302Z" fill="white"/>
<path d="M158.887 22.2988C158.887 24.0777 159.093 25.4303 159.507 26.3565C159.925 27.2869 160.761 27.7481 162.018 27.7481C163.272 27.7481 164.107 27.2869 164.525 26.3565C164.943 25.4303 165.15 24.0779 165.15 22.2988V12.6748L168.252 14.0576V22.1524C168.252 23.9315 168.079 25.4138 167.73 26.5899C167.381 27.77 166.752 28.6877 165.844 29.3467C164.935 30.0014 163.66 30.333 162.018 30.333C160.373 30.333 159.093 30.0015 158.176 29.3467C157.258 28.6877 156.625 27.77 156.276 26.5899C155.927 25.4138 155.755 23.9315 155.755 22.1524V6.58009H158.887V22.2988ZM138.217 9.01564H132.388V16.7871H137.113V19.1045H132.388V27.7158H138.272V30.0684H129.109V6.57814H138.217V9.01564ZM145.637 6.58009C148.014 6.58009 149.76 7.06611 150.871 8.04396C151.982 9.01752 152.538 10.6079 152.538 12.8135C152.538 15.8287 151.573 17.6555 149.639 18.293L152.973 30.0654H149.815L146.739 19.0469H144.189V30.0654H140.911V6.58009H145.637ZM121.013 6.57326C123.046 6.57327 124.519 7.12404 125.436 8.22658C126.354 9.32937 126.815 10.9456 126.815 13.0694C126.815 14.9861 126.319 16.4722 125.333 17.5361C124.346 18.6 122.917 19.1299 121.043 19.1299H118.462V30.0635H115.184V6.57326H121.013ZM118.462 16.7822H119.97C120.934 16.7822 121.684 16.6749 122.219 16.4639C122.748 16.2528 123.131 15.8816 123.364 15.3604C123.592 14.8392 123.709 14.0858 123.709 13.0996C123.709 11.9022 123.623 11.0229 123.451 10.4629C123.274 9.89859 122.933 9.50177 122.421 9.27345C121.908 9.04096 121.098 8.92482 120 8.92482H118.462V16.7822ZM144.189 16.6983H145.434C146.847 16.6982 147.855 16.4184 148.467 15.8584C149.074 15.2984 149.376 14.2822 149.376 12.8135C149.376 11.8485 149.273 11.0852 149.057 10.5381C148.846 9.98687 148.471 9.57778 147.929 9.31935C147.386 9.05658 146.623 8.92775 145.637 8.92775H144.189V16.6983ZM168.252 11.3828L165.15 10.0049V6.58009H168.252V11.3828Z" fill="white"/>
</svg>
